<?xml version="1.0" encoding="utf-8"?>
<!-- Generator: Adobe Illustrator 23.0.1, SVG Export Plug-In . SVG Version: 6.00 Build 0)  -->
<svg version="1.1" xmlns="http://www.w3.org/2000/svg" xmlns:xlink="http://www.w3.org/1999/xlink" x="0px" y="0px"
	 viewBox="0 0 1332 1080" style="enable-background:new 0 0 1332 1080;" xml:space="preserve">
<style type="text/css">
	.st0{fill-rule:evenodd;clip-rule:evenodd;fill:url(#SVGID_1_);}
	.st1{fill-rule:evenodd;clip-rule:evenodd;fill:#B3001A;}
	.st2{fill-rule:evenodd;clip-rule:evenodd;fill:#008927;}
	.st3{fill-rule:evenodd;clip-rule:evenodd;fill:#00CE3A;}
	.st4{fill-rule:evenodd;clip-rule:evenodd;fill:#DE392D;}
	.st5{fill-rule:evenodd;clip-rule:evenodd;fill:#FFFFFF;}
</style>
<g id="Layer_1">
</g>
<g id="slide_x5F_7">
</g>
<g id="_x36_">
</g>
<g id="_x35_">
</g>
<g id="slide_x5F_4">
</g>
<g id="slide_x5F_2">
	<g id="boy">
	</g>
</g>
<g id="slide_x5F_1">
	<g id="logo">
		<g id="Shape_1_copy">
			<g>
				<linearGradient id="SVGID_1_" gradientUnits="userSpaceOnUse" x1="496.175" y1="1056.8843" x2="811.1444" y2="26.6658">
					<stop  offset="0" style="stop-color:#E3086F"/>
					<stop  offset="1" style="stop-color:#FEB205"/>
				</linearGradient>
				<path class="st0" d="M859,41.4C337.1-127.3-82.4,243.3,136.1,722.1c14.3,31.3,36.1,36.7,28.6,2.2C48,186.5,487.3-14,786.5,62.4
					c226.1,57.7,353.6,219.3,377.9,354.2c89.6,495.5-303,381.2-432.6,368.9c0,0.1-0.1,0.1-0.1,0.2l-0.6-0.2c0.2,0,0.5,0,0.7,0.1
					c13.5-29.6,21.6-57.3,24.8-75.4L793,492l-91.8-1.7l-5.1,28.4c-13.9-24.8-34.5-38.3-56.7-38.8c-7.5-0.1-75.9,3.5-111,111.9
					c8.5-26.1-11.1,24.5-10.9,75.9c-7,12.3-15.2,23.8-24.4,34.5c-10.3,11.9-21.2,21.9-32.6,30c-11.4,8.1-22.7,14.4-34,18.9
					c-11.2,4.6-21.6,6.8-31,6.8c-15.7-0.1-29.9-5-42.8-14.8c-12.8-9.8-18.8-23.5-17.8-41.3c0.6-11.6,3.8-21.5,9.4-29.5
					c5.7-8.1,12.3-14.6,19.9-19.6c7.6-5,15.5-8.8,23.8-11.5c8.2-2.7,15.5-4.3,21.9-5.1c7.4-0.7,16.1-2.4,26.2-5.1
					c10.1-2.6,19.7-6.8,28.9-12.6c9.2-5.7,17.2-13.2,24-22.5c6.8-9.2,10.5-21.2,11.3-35.9c0.9-17-2.1-31.2-9.1-42.4
					c-7-11.3-15.7-19.8-26.1-25.7c-10.4-5.9-21.6-10-33.5-12.4c-11.9-2.4-22.3-3.6-31.2-3.7c-18.3-0.1-37.9,4.4-58.8,13.6
					c-20.9,9.2-40.2,22.2-57.8,39.1c-17.7,16.9-32.6,37.5-44.9,61.8c-12.3,24.3-19.2,51.9-20.9,82.9c-1.3,24.8,1.6,46.3,8.7,64.5
					c7.1,18.2,16.8,33.4,29,45.5c12.2,12.1,26.1,21.1,41.7,27c15.6,5.9,31,8.9,46.2,9c17.8,0.1,36-3.3,54.7-10.1
					c18.7-6.8,36.5-16.6,53.4-29.3c16.9-12.7,32.5-27.8,46.8-45.6c8.4-10.5,15.9-21.6,22.5-33.4c6.7,29,24.3,52.2,63.4,52.9
					c16.4,0.3,32-5.8,46.8-18.4c14.8-12.6,26.8-28,35.9-46.2c0,0,6.1,31.6-13.5,90.3c0.5,0,0.9,0.1,1.4,0.1l-2,1.6
					c0.2-0.6,0.4-1.1,0.6-1.7c-56.6-3-106.8-1.5-142.1,10.6c-109.7,37.4-78.4,124.7,46.6,132.4c73.1,4.5,125.1-48.8,157.7-105.6
					c0,0,0,0,0,0l0,0c0,0,0,0,0,0c76.5,9,472.7,142.8,528.5-188C1310.4,237.5,969.4,77.1,859,41.4z M323.4,638
					c0.6-11.6,2.5-24.9,5.7-40c3.2-15.1,7.6-29.4,13.3-42.9c5.7-13.5,12.3-25.1,19.9-34.7c7.6-9.6,16.1-14.4,25.5-14.3
					c7.8,0.1,14.3,3.6,19.4,10.6c5.1,7,7.4,16.7,6.7,29.1c-0.9,17-5,30.2-12.3,39.4c-7.3,9.2-15.8,17.5-25.6,24.8
					c-9.8,7.3-19.5,15-29.1,23c-9.6,8.1-17.1,19.4-22.6,34.1C323.2,657.7,322.9,648,323.4,638z M641.7,810.8
					c-3.8,8.9-8.1,18.2-13.1,28c-17.3,34.1-152,45.6-91.1-8.1C556.4,814,594.6,809.3,641.7,810.8c0.4-0.8,0.7-1.7,1.1-2.5l2,2.6
					C643.7,810.9,642.7,810.9,641.7,810.8z M633.9,683.9c16.9,0.3-45,14.3-21.4-90c-1.2,5.5,14.6-75.6,51.6-74.9
					c-16.9-0.3,44.4-14.3,20.7,90C686.1,603.6,670,684.6,633.9,683.9z M866.6,968.4c-353.4,117.7-565.9-22.5-660.1-148.1
					c-11.9-15.9-25.5-10-7.4,16.5c29.4,43,262.6,379.5,719.1,173.6C963.4,989.9,898.3,957.9,866.6,968.4z M1026.2,899.9
					c-27.7-7.7-60.8,11.8-73,22.9c-12.9,11.8-18.8,25.8-15.2,35.4c3.6,9.5,20.5,20.7,54.3,9.2C1038.7,951.5,1060,909.3,1026.2,899.9
					z M588.3,237c-16.1-41-51.8-62.1-107-62.1c-32,1.8-55.6,6.7-70.5,14.7c4.3,86.6,11.2,168.6,19.8,245.4c0,0.4,7.7,2,23.2,4.8
					c15.3,2.8,27.8,4.1,37.5,4c24.4-0.8,39.9-2.9,46.8-6.5c9.8-1.3,21.5-5.8,35.2-13.5c6.1-3.2,11.6-7.5,16.5-12.9
					c10.1-9.4,15.6-21.3,16.5-35.6c0.9-14.6-2.3-27.6-9.8-39.1c-7.4-8.3-17.8-15.3-31.1-20.9C593.8,300.4,601.6,274.7,588.3,237z
					 M488.4,297.5c-1.8-12.5-3.1-25.7-3.9-39.5c11.8-5.4,24.4-6.2,37.5-2.6c7.1,2.7,11.3,8.1,12.4,16.1
					C537.3,292,522,300.5,488.4,297.5z M496.7,388c-1.5-10.9-2.6-23.6-3.3-38.3c14.7-5.9,28.7-7.2,41.8-3.8c9.4,2.3,15,7.7,16.9,16
					C553.6,383.9,535.3,392.5,496.7,388z M775.9,251.1c6.5-29.8,9.5-54,8.9-72.3c-49.1,2.3-104.9,3.9-167.6,4.7
					c-0.6,6.3,0.3,27.6,2.8,63.1c0.3,16.4,0.5,26.6,0.7,30.6c2.6,56.6,3.9,95.5,3.8,118.6c-0.1,22.6-0.2,35.9-0.4,40.4
					c80-9.5,127.3-14.8,142.6-15.8c2.8-26.4,3-49.4,0.7-68.9c-25.9,1.5-44.4,3.3-55.5,5.3c-11.5,2-21,3.1-28.6,3.3l-1.2-0.4
					c0-3.9-0.1-12.1-0.1-24.7l0.7-0.8l45.7-4.6l3.5-50.9c-2.9-0.9-20-0.4-51.5,1.7c0-5.8,0.5-13.3,1.4-22.7
					C709.6,253.4,741,251.3,775.9,251.1z M927.5,272.7c3.3,0.1,5.5-3.1,6.4-9.6c4.7-31.1,6-50.8,3.7-58.4
					c-34.2-8.7-76.6-15.5-127.6-20.3c-0.1,1-0.6,1.5-1.5,1.5c-7.4,114.9-11.9,178.1-15,212.1l-2.8,31.6c3.5,5.5,28.6,10,74.6,13.4
					c7.5-0.1,16.9-1.7,28.3-4.9c26.3-12.8,41.7-32.6,46.2-59.9c2-12.5,1.3-27.5-2.2-45.4c-14.5-31.7-35.5-48.2-62.9-48.6l-10.1-0.2
					l2.5-20.7C890.4,269.3,910.4,272.4,927.5,272.7z M876.5,347.8c14.7,0.1,21.6,11.6,20.5,34c-1.7,11.9-9,19.2-21.9,22
					c-13-2.5-19.3-5.8-18.8-9.7c0.8-6.4,2.2-21.7,4.4-46.4L876.5,347.8z M1041,657.2l26.5-184.6l-91.9,4.4l-4,30.1
					c-7.5-12.5-16.1-21.9-25.8-28.2c-9.7-6.3-20.3-9.2-31.7-8.6c-15.4,0.7-30.2,7.1-44.3,19c-14.1,11.9-26.7,27-37.7,45.2
					c-11,18.2-19.7,38.4-26.1,60.6c-6.4,22.2-9.6,44.2-9.6,66.1c0,28.9,6.1,53.1,18.2,72.5c12.1,19.3,28.3,28.5,48.6,27.6
					c18.5-0.9,35.5-9.6,50.9-26.1c15.4-16.5,27.6-36.2,36.4-59.2c1.8,23.1,8.4,41.3,19.8,54.5c11.5,13.3,24.9,19.5,40.3,18.8
					c12.8-0.6,25.1-4.8,37-12.4c11.9-7.6,22.9-17.7,33.1-30.1c10.1-12.4,19-26.6,26.5-42.8c7.5-16.1,13.4-32.6,17.9-49.6l-13.2-7.1
					c-4.9,18.9-11.7,36.3-20.5,52.1c-8.8,15.9-20.7,24.2-35.7,24.9c-4.4,0.2-8.1-1.5-10.9-5.3c-2.9-3.7-4.3-9.1-4.3-16.2
					c0-1.3,0.1-2.3,0.3-2.9C1040.9,659.5,1041,658.5,1041,657.2z M961.6,602.7c-2.6,13.3-6.3,26-10.9,38.2
					c-4.6,12.1-10.3,22.4-16.9,30.7c-6.6,8.4-14.1,12.7-22.5,13.1c-4.9,0.2-8.9-1.5-12.2-5.2c-3.3-3.7-6-8.2-7.9-13.6
					c-2-5.4-3.4-11.4-4.3-18.1c-0.9-6.7-1.3-13-1.3-18.8c0-10.3,1.3-22.1,4-35.4c2.6-13.3,6.3-26.2,10.9-38.6
					c4.6-12.4,10.3-23,16.9-31.7c6.6-8.7,14.1-13.2,22.5-13.6c4.8-0.2,8.9,1.5,12.2,5.2c3.3,3.7,6,8.4,7.9,14.1
					c2,5.7,3.4,11.9,4.3,18.6c0.9,6.7,1.3,13,1.3,18.8C965.6,577.2,964.3,589.4,961.6,602.7z"/>
			</g>
		</g>
		<g id="shadow">
			<g>
				<path class="st1" d="M98.8,327.2c-18,56-25.4,117.3-20.2,182.6c16.7,11.4,36.8,18,58.5,18c3,0,6-0.1,9-0.4
					c3.1-73.2,18.5-137.6,43.1-193.5c-15.3-8.9-33.1-14-52.1-14C123.5,319.9,110.6,322.5,98.8,327.2z M228.6,131.1
					c-20.5,18-39.3,37.5-56,58.6c2.2,28,25.6,50.1,54.2,50.1c7.7,0,15-1.6,21.6-4.5c9.7-12.3,19.9-24,30.7-35.1
					c1.3-4.7,2.1-9.7,2.1-14.8C281.1,156,257.7,132.1,228.6,131.1z"/>
			</g>
		</g>
		<g id="Shape_2_copy">
			<g>
				<path class="st2" d="M1313,260.9c-277.3-5.6-340.5,196.5-195.2,166.6C1263,397.6,1379.1,262.2,1313,260.9z"/>
			</g>
		</g>
		<g id="Shape_2">
			<g>
				<path class="st3" d="M1208.3,90.7c-208.2,63.7-218.5,257-204.4,322.7c6.3,29.1,67.8-9.1,104.8-37.2
					C1230.6,283.4,1272.6,71,1208.3,90.7z"/>
			</g>
		</g>
		<g id="Shape_2_1_">
			<g>
				<path class="st2" d="M1004.1,413.9c2.2,9,10,11.3,20.8,9.2c24.3-69.4,87.3-162.6,106.8-198.5
					C1062.3,274.5,1015.2,379.6,1004.1,413.9z"/>
			</g>
		</g>
		<g id="Ellipse_2">
			<g>
				
					<ellipse transform="matrix(0.7071 -0.7071 0.7071 0.7071 -229.11 186.7552)" class="st4" cx="110.9" cy="369.9" rx="108.3" ry="108.3"/>
			</g>
		</g>
		<g id="Ellipse_2_copy">
			<g>
				<path class="st5" d="M157.1,299.7c-26.2-28.3-68.5-22-95.8-3.1c-7.6,5.2-35.2,35.5-1.4,24.8c16.8-5.3,28.2,11.7,39.5,16
					C153.4,357.7,181.1,325.7,157.1,299.7z"/>
			</g>
		</g>
		<g id="Ellipse_2_1_">
			<g>
				
					<ellipse transform="matrix(0.3827 -0.9239 0.9239 0.3827 -3.4096 288.0928)" class="st4" cx="213.9" cy="146.6" rx="56.8" ry="56.8"/>
			</g>
		</g>
		<g id="Ellipse_2_copy_2">
			<g>
				<path class="st5" d="M245.4,112c-15.5-19.6-40.5-15.3-56.8-2.2c-4.5,3.6-20.8,24.6-0.8,17.2c9.9-3.7,16.7,8.1,23.4,11.1
					C243.2,152.1,259.6,130,245.4,112z"/>
			</g>
		</g>
	</g>
</g>
</svg>
