<?xml version="1.0" encoding="utf-8"?>
<!-- Generator: Adobe Illustrator 23.0.1, SVG Export Plug-In . SVG Version: 6.00 Build 0)  -->
<svg version="1.1" xmlns="http://www.w3.org/2000/svg" xmlns:xlink="http://www.w3.org/1999/xlink" x="0px" y="0px"
	 viewBox="0 0 1328.2 1080" style="enable-background:new 0 0 1328.2 1080;" xml:space="preserve">
<style type="text/css">
	.st0{fill-rule:evenodd;clip-rule:evenodd;fill:#FFFFFF;}
</style>
<g id="Layer_1">
</g>
<g id="slide_x5F_7">
</g>
<g id="_x36_">
</g>
<g id="_x35_">
</g>
<g id="slide_x5F_4">
</g>
<g id="slide_x5F_2">
	<g id="boy">
	</g>
	<g id="logo_1_">
		<g id="Shape_1_copy_1_">
			<g>
				<path class="st0" d="M278.2,189.7c0,5.2-0.8,10.2-2.1,14.9C409.4,67.1,617.7,24.6,783.2,66.8c125.3,32,220.2,95.9,284.1,169.4
					l38.8-38.3c-89.2-88.1-197-134.7-250.5-152C600.1-36.8,369.1,10,225.7,135.5C254.9,136.5,278.2,160.3,278.2,189.7z
					 M1022.6,903.5c-27.6-7.7-60.8,11.8-72.9,22.8c-12.9,11.8-18.8,25.7-15.2,35.3c3.6,9.5,20.5,20.7,54.2,9.2
					C1035.1,955.1,1056.4,912.9,1022.6,903.5z M863.2,972c-353,117.6-565.4-22.5-659.5-148c-11.9-15.9-25.5-10-7.4,16.5
					c29.3,43,262.4,379.2,718.4,173.4C959.9,993.5,894.8,961.4,863.2,972z M1213.7,354.8l-61.9,29.5c3.8,12.3,6.8,24.4,8.9,36.3
					c89.5,495-302.7,380.8-432.2,368.6c0,0.1-0.1,0.1-0.1,0.2l-0.6-0.2c0.2,0,0.5,0,0.7,0.1c13.4-29.5,21.6-57.3,24.8-75.3
					L789.6,496l-91.7-1.7l-5.1,28.4c-13.8-24.8-34.5-38.3-56.6-38.7c-7.5-0.1-75.8,3.5-110.9,111.8c8.5-26-11,24.5-10.9,75.8
					c-7,12.3-15.2,23.8-24.4,34.5c-10.3,11.9-21.2,21.9-32.6,29.9c-11.4,8-22.7,14.4-33.9,18.9c-11.2,4.6-21.5,6.8-30.9,6.8
					c-15.7-0.1-29.9-5-42.7-14.8c-12.8-9.7-18.7-23.5-17.8-41.3c0.6-11.6,3.8-21.4,9.4-29.5c5.6-8.1,12.3-14.6,19.9-19.6
					c7.6-5,15.5-8.8,23.7-11.5c8.2-2.6,15.5-4.3,21.8-5.1c7.4-0.7,16.1-2.4,26.1-5.1c10.1-2.6,19.7-6.8,28.9-12.6
					c9.2-5.7,17.2-13.2,23.9-22.5c6.8-9.2,10.5-21.2,11.3-35.9c0.9-17-2.1-31.1-9.1-42.4c-7-11.2-15.7-19.8-26.1-25.7
					c-10.4-5.9-21.6-10-33.4-12.4c-11.9-2.4-22.3-3.6-31.2-3.7c-18.3-0.1-37.9,4.4-58.7,13.5c-20.9,9.1-40.1,22.2-57.7,39.1
					c-17.6,16.9-32.6,37.5-44.8,61.8c-12.3,24.3-19.2,51.9-20.9,82.8c-1.3,24.7,1.6,46.2,8.7,64.4c7.1,18.2,16.8,33.4,28.9,45.4
					c12.2,12.1,26.1,21,41.7,26.9c15.6,5.9,31,8.9,46.2,9c17.8,0.1,36-3.3,54.6-10.1c18.7-6.8,36.4-16.6,53.3-29.2
					c16.9-12.7,32.5-27.8,46.7-45.5c8.4-10.4,15.9-21.6,22.5-33.4c6.7,29,24.3,52.1,63.4,52.9c16.4,0.3,32-5.8,46.8-18.4
					c14.8-12.6,26.8-28,35.9-46.2c0,0,6.1,31.6-13.5,90.3c0.5,0,0.9,0.1,1.4,0.1l-2,1.6c0.2-0.6,0.4-1.1,0.6-1.7
					c-56.6-3-106.7-1.5-142,10.6c-109.6,37.4-78.3,124.5,46.5,132.2c73,4.5,124.9-48.8,157.6-105.5l0,0
					c76.4,9,472.2,142.7,528-187.8C1259.1,522.6,1245.4,430.7,1213.7,354.8z M320.5,641.8c0.6-11.6,2.5-24.9,5.7-40
					c3.2-15.1,7.6-29.3,13.3-42.8c5.7-13.5,12.3-25,19.9-34.7c7.6-9.6,16.1-14.4,25.5-14.3c7.8,0.1,14.3,3.6,19.4,10.6
					c5.1,7,7.3,16.7,6.7,29c-0.9,17-5,30.1-12.3,39.4c-7.3,9.2-15.8,17.5-25.6,24.8c-9.8,7.3-19.5,15-29.1,23
					c-9.6,8.1-17.1,19.4-22.6,34.1C320.3,661.5,320,651.9,320.5,641.8z M638.5,814.5c-3.8,8.9-8.1,18.2-13.1,28
					c-17.2,34-151.9,45.5-91-8.1C553.3,817.7,591.4,813,638.5,814.5c0.4-0.8,0.7-1.7,1-2.5l2,2.6
					C640.5,814.6,639.5,814.6,638.5,814.5z M630.7,687.8c16.8,0.3-45,14.3-21.3-90c-1.2,5.5,14.6-75.5,51.6-74.8
					c-16.9-0.3,44.3-14.3,20.7,89.9C682.9,607.5,666.8,688.4,630.7,687.8z M143.3,531.4c-3,0.3-6,1-9,0.4
					c-26.2-5.1-45.7-25.1-58.4-38.2c4,87.1,23.8,158.5,57.5,232.3c14.3,31.3,36.1,36.7,28.6,2.2C146.5,656.6,140.8,591,143.3,531.4z
					 M223.9,244c-28.5,0-51.9-22-54.1-50c-32.4,40.7-57.5,86.8-73.8,137.4c11.8-4.7,24.8-7.3,38.3-7.3c19,0,36.7,5.1,52,14
					c16.1-36.4,36.1-69.2,59.2-98.5C238.9,242.4,231.6,244,223.9,244z M585.1,241.3c-16.1-40.9-51.7-62.1-106.9-62
					c-32,1.8-55.5,6.7-70.4,14.7c4.3,86.5,11.2,168.5,19.8,245.2c0,0.4,7.7,2,23.2,4.8c15.3,2.8,27.8,4.1,37.5,4
					c24.3-0.8,39.9-2.9,46.8-6.5c9.8-1.3,21.5-5.8,35.2-13.5c6.1-3.2,11.6-7.5,16.5-12.9c10.1-9.4,15.6-21.3,16.5-35.6
					c0.9-14.6-2.3-27.6-9.7-39.1c-7.4-8.3-17.7-15.3-31.1-20.9C590.6,304.6,598.4,278.9,585.1,241.3z M485.3,301.7
					c-1.8-12.5-3.1-25.7-3.9-39.5c11.8-5.4,24.3-6.2,37.5-2.6c7.1,2.7,11.3,8.1,12.4,16.1C534.2,296.2,518.9,304.7,485.3,301.7z
					 M493.6,392.1c-1.5-10.8-2.6-23.6-3.3-38.2c14.7-5.9,28.6-7.1,41.8-3.8c9.4,2.3,15,7.7,16.9,16
					C550.5,388,532.2,396.5,493.6,392.1z M772.6,255.3c6.5-29.7,9.5-53.9,8.9-72.2c-49.1,2.3-104.8,3.9-167.4,4.7
					c-0.6,6.3,0.3,27.6,2.8,63c0.3,16.4,0.5,26.6,0.7,30.6c2.6,56.5,3.9,95.4,3.8,118.5c-0.1,22.6-0.2,35.9-0.4,40.4
					c80-9.5,127.2-14.8,142.5-15.8c2.8-26.4,3-49.4,0.7-68.9c-25.8,1.5-44.4,3.3-55.4,5.3c-11.4,2-21,3.1-28.6,3.3l-1.2-0.4
					c0-3.9-0.1-12.1-0.1-24.7l0.7-0.8l45.6-4.6l3.5-50.9c-2.9-0.9-19.9-0.4-51.4,1.7c0-5.8,0.5-13.3,1.4-22.6
					C706.3,257.7,737.7,255.5,772.6,255.3z M924,276.9c3.3,0.1,5.4-3.1,6.4-9.6c4.7-31.1,6-50.8,3.7-58.4
					c-34.1-8.7-76.5-15.5-127.4-20.3c-0.1,1-0.6,1.5-1.5,1.5c-7.4,114.8-11.9,178-15,211.9l-2.8,31.5c3.5,5.5,28.6,10,74.6,13.4
					c7.5-0.1,16.9-1.7,28.2-4.9c26.3-12.7,41.7-32.5,46.2-59.9c2-12.5,1.3-27.5-2.2-45.3c-14.4-31.6-35.5-48.1-62.9-48.5l-10.1-0.2
					l2.5-20.7C887,273.5,907,276.6,924,276.9z M873.1,351.9c14.7,0.1,21.5,11.5,20.5,34c-1.7,11.9-9,19.2-21.8,22
					c-13-2.5-19.3-5.8-18.8-9.7c0.8-6.4,2.2-21.7,4.4-46.4L873.1,351.9z M1051.9,688.3c-4.4,0.2-8-1.5-10.9-5.3
					c-2.9-3.7-4.3-9.1-4.3-16.2c0-1.3,0.1-2.3,0.3-2.9c0.2-0.6,0.3-1.6,0.3-2.9l26.4-184.4l-91.8,4.4l-4,30.1
					c-7.5-12.5-16.1-21.9-25.8-28.2c-9.7-6.3-20.3-9.1-31.7-8.6c-15.4,0.7-30.2,7.1-44.3,19c-14.1,11.9-26.7,27-37.7,45.2
					c-11,18.2-19.7,38.4-26.1,60.5c-6.4,22.2-9.6,44.2-9.6,66c0,28.9,6.1,53.1,18.2,72.4c12.1,19.3,28.3,28.5,48.6,27.5
					c18.5-0.9,35.5-9.6,50.9-26.1c15.4-16.5,27.5-36.2,36.3-59.1c1.8,23,8.4,41.2,19.8,54.5c11.4,13.3,24.9,19.5,40.3,18.8
					c12.8-0.6,25.1-4.8,37-12.4c11.9-7.6,22.9-17.6,33-30c10.1-12.4,18.9-26.6,26.4-42.7c7.5-16.1,13.4-32.6,17.8-49.5l-13.2-7.1
					c-4.8,18.9-11.7,36.2-20.5,52.1C1078.8,679.3,1066.9,687.6,1051.9,688.3z M958.1,606.6c-2.6,13.3-6.3,26-10.9,38.1
					c-4.6,12.1-10.2,22.3-16.8,30.7c-6.6,8.4-14.1,12.7-22.5,13.1c-4.9,0.2-8.9-1.5-12.2-5.2c-3.3-3.7-5.9-8.2-7.9-13.6
					c-2-5.4-3.4-11.4-4.3-18.1c-0.9-6.7-1.3-13-1.3-18.7c0-10.3,1.3-22.1,4-35.4c2.6-13.3,6.3-26.2,10.9-38.6
					c4.6-12.4,10.2-23,16.9-31.7c6.6-8.7,14.1-13.2,22.5-13.6c4.8-0.2,8.9,1.5,12.2,5.2c3.3,3.7,5.9,8.4,7.9,14.1
					c2,5.7,3.4,11.9,4.3,18.6c0.9,6.7,1.3,13,1.3,18.7C962.1,581.2,960.8,593.3,958.1,606.6z"/>
			</g>
		</g>
		<path class="st0" d="M1309.2,265.1c-25.8-0.5-49.7,0.8-71.8,3.5c-34.5,54.3-94.2,114.9-164.6,142.2c-8,3.1-17,6.3-26.2,9.3
			c11.1,12.7,33.6,18.4,67.6,11.4C1259.2,401.6,1375.2,266.5,1309.2,265.1z"/>
		<path class="st0" d="M1204.6,95.1c-207.1,63.4-218.2,255.1-204.3,321.5c13.7-38.7,61.5-140,127.8-187.8
			c-19.2,35.3-81.9,129.3-107.1,198.4c22.7-4.2,59-27.9,84-46.9C1226.8,287.6,1268.8,75.4,1204.6,95.1z"/>
		<g id="Ellipse_2_3_">
			<g>
				<path class="st0" d="M108.2,265.9C48.4,265.9,0,314.3,0,374s48.4,108.2,108.2,108.2c59.7,0,108.2-48.4,108.2-108.2
					S167.9,265.9,108.2,265.9z"/>
			</g>
		</g>
		<g id="Ellipse_2_2_">
			<g>
				<path class="st0" d="M211.1,94.2c-31.3,0-56.7,25.4-56.7,56.7c0,31.3,25.4,56.7,56.7,56.7c31.3,0,56.7-25.4,56.7-56.7
					C267.8,119.6,242.4,94.2,211.1,94.2z"/>
			</g>
		</g>
	</g>
</g>
<g id="slide_x5F_1">
</g>
</svg>
